<mxfile host="Electron" agent="Mozilla/5.0 (Macintosh; Intel Mac OS X 10_15_7) AppleWebKit/537.36 (KHTML, like Gecko) draw.io/28.1.2 Chrome/138.0.7204.243 Electron/37.4.0 Safari/537.36" version="28.1.2">
  <diagram name="Seite-1" id="NrbdtOU8l5xmAe7ymhUr">
    <mxGraphModel dx="1410" dy="-395" grid="1" gridSize="10" guides="1" tooltips="1" connect="1" arrows="1" fold="1" page="1" pageScale="1" pageWidth="827" pageHeight="1169" math="0" shadow="0">
      <root>
        <mxCell id="0" />
        <mxCell id="1" parent="0" />
        <mxCell id="nb7jKAPWfvL3e58ZdCud-15" value="Aggregate" style="rounded=0;whiteSpace=wrap;html=1;dashed=1;verticalAlign=top;align=left;" vertex="1" parent="1">
          <mxGeometry x="200" y="1340" width="390" height="500" as="geometry" />
        </mxCell>
        <mxCell id="nb7jKAPWfvL3e58ZdCud-10" value="" style="edgeStyle=orthogonalEdgeStyle;rounded=0;orthogonalLoop=1;jettySize=auto;html=1;" edge="1" parent="1" source="a6-sa-Pfjen3ggbp_8G2-102" target="nb7jKAPWfvL3e58ZdCud-1">
          <mxGeometry relative="1" as="geometry" />
        </mxCell>
        <mxCell id="a6-sa-Pfjen3ggbp_8G2-102" value="Root Entity" style="rounded=0;whiteSpace=wrap;html=1;labelPosition=center;verticalLabelPosition=middle;align=center;verticalAlign=top;fontStyle=0" parent="1" vertex="1">
          <mxGeometry x="240" y="1390" width="310" height="310" as="geometry" />
        </mxCell>
        <mxCell id="nb7jKAPWfvL3e58ZdCud-1" value="&amp;nbsp;Sub Entity" style="rounded=0;whiteSpace=wrap;html=1;labelPosition=center;verticalLabelPosition=middle;align=center;verticalAlign=top;fontStyle=0" vertex="1" parent="1">
          <mxGeometry x="240" y="1740" width="310" height="60" as="geometry" />
        </mxCell>
        <mxCell id="nb7jKAPWfvL3e58ZdCud-2" value="Value Object" style="rounded=0;whiteSpace=wrap;html=1;labelPosition=center;verticalLabelPosition=middle;align=center;verticalAlign=top;fontStyle=0" vertex="1" parent="1">
          <mxGeometry x="280" y="1530" width="230" height="130" as="geometry" />
        </mxCell>
        <mxCell id="nb7jKAPWfvL3e58ZdCud-4" value="Primitive Properties" style="text;strokeColor=#3333FF;fillColor=none;align=left;verticalAlign=middle;spacingLeft=4;spacingRight=4;overflow=hidden;points=[[0,0.5],[1,0.5]];portConstraint=eastwest;rotatable=0;whiteSpace=wrap;html=1;" vertex="1" parent="1">
          <mxGeometry x="340" y="1430" width="120" height="30" as="geometry" />
        </mxCell>
        <mxCell id="nb7jKAPWfvL3e58ZdCud-5" value="Primitive Properties" style="text;strokeColor=#3333FF;fillColor=none;align=left;verticalAlign=middle;spacingLeft=4;spacingRight=4;overflow=hidden;points=[[0,0.5],[1,0.5]];portConstraint=eastwest;rotatable=0;whiteSpace=wrap;html=1;" vertex="1" parent="1">
          <mxGeometry x="340" y="1570" width="120" height="30" as="geometry" />
        </mxCell>
        <mxCell id="nb7jKAPWfvL3e58ZdCud-14" style="edgeStyle=orthogonalEdgeStyle;rounded=0;orthogonalLoop=1;jettySize=auto;html=1;exitX=0.5;exitY=1;exitDx=0;exitDy=0;entryX=0.5;entryY=0;entryDx=0;entryDy=0;" edge="1" parent="1" source="nb7jKAPWfvL3e58ZdCud-12" target="a6-sa-Pfjen3ggbp_8G2-102">
          <mxGeometry relative="1" as="geometry" />
        </mxCell>
        <mxCell id="nb7jKAPWfvL3e58ZdCud-12" value="Repository" style="rounded=0;whiteSpace=wrap;html=1;labelPosition=center;verticalLabelPosition=middle;align=center;verticalAlign=top;fontStyle=0" vertex="1" parent="1">
          <mxGeometry x="240" y="1210" width="310" height="90" as="geometry" />
        </mxCell>
        <mxCell id="nb7jKAPWfvL3e58ZdCud-16" value="Methoden fÃ¼r Zugriff" style="text;strokeColor=#009900;fillColor=none;align=left;verticalAlign=middle;spacingLeft=4;spacingRight=4;overflow=hidden;points=[[0,0.5],[1,0.5]];portConstraint=eastwest;rotatable=0;whiteSpace=wrap;html=1;" vertex="1" parent="1">
          <mxGeometry x="333.75" y="1250" width="122.5" height="30" as="geometry" />
        </mxCell>
        <mxCell id="nb7jKAPWfvL3e58ZdCud-17" value="Fachliche Methoden" style="text;strokeColor=#009900;fillColor=none;align=left;verticalAlign=middle;spacingLeft=4;spacingRight=4;overflow=hidden;points=[[0,0.5],[1,0.5]];portConstraint=eastwest;rotatable=0;whiteSpace=wrap;html=1;" vertex="1" parent="1">
          <mxGeometry x="340" y="1470" width="122.5" height="30" as="geometry" />
        </mxCell>
        <mxCell id="nb7jKAPWfvL3e58ZdCud-18" value="Fachliche Methoden" style="text;strokeColor=#009900;fillColor=none;align=left;verticalAlign=middle;spacingLeft=4;spacingRight=4;overflow=hidden;points=[[0,0.5],[1,0.5]];portConstraint=eastwest;rotatable=0;whiteSpace=wrap;html=1;" vertex="1" parent="1">
          <mxGeometry x="340" y="1610" width="122.5" height="30" as="geometry" />
        </mxCell>
        <mxCell id="nb7jKAPWfvL3e58ZdCud-19" value="ID" style="text;strokeColor=#3333FF;fillColor=none;align=left;verticalAlign=middle;spacingLeft=4;spacingRight=4;overflow=hidden;points=[[0,0.5],[1,0.5]];portConstraint=eastwest;rotatable=0;whiteSpace=wrap;html=1;" vertex="1" parent="1">
          <mxGeometry x="300" y="1430" width="30" height="30" as="geometry" />
        </mxCell>
      </root>
    </mxGraphModel>
  </diagram>
</mxfile>
